<?xml version="1.0" encoding="UTF-8"?>
<svg version="1.1" xmlns="http://www.w3.org/2000/svg" width="512" height="512">
<path d="M0 0 C0.96955627 0.00182281 1.93911255 0.00364563 2.93804932 0.00552368 C17.26979259 0.05087263 31.28395512 0.46954578 45.375 3.3125 C46.27686035 3.48942383 47.1787207 3.66634766 48.10791016 3.84863281 C54.58082573 5.14747811 60.98520862 6.65426195 67.375 8.3125 C68.62095947 8.63492676 68.62095947 8.63492676 69.89208984 8.96386719 C110.94536097 19.85173176 147.93665796 41.91035683 178.375 71.3125 C178.99584473 71.91143066 179.61668945 72.51036133 180.25634766 73.12744141 C188.15822143 80.79196228 195.698257 88.53493732 202.375 97.3125 C202.99205811 98.10696533 202.99205811 98.10696533 203.62158203 98.91748047 C211.26612166 108.78496058 217.81655737 119.19346435 224.04394531 130.00390625 C224.85583773 131.41206009 225.67394028 132.81668672 226.50292969 134.21484375 C248.03330693 170.55894466 256.85478297 214.12659866 256.6875 255.9375 C256.68534485 256.90838562 256.6831897 257.87927124 256.68096924 258.87957764 C256.62992827 273.21501026 256.24721848 287.22275803 253.375 301.3125 C253.17100586 302.33859375 252.96701172 303.3646875 252.75683594 304.421875 C245.21349163 341.49076929 231.03832923 376.83056728 208.375 407.3125 C207.92801758 407.91497559 207.48103516 408.51745117 207.02050781 409.13818359 C200.351152 418.04266189 193.10083724 426.31438656 185.375 434.3125 C184.77606934 434.93334473 184.17713867 435.55418945 183.56005859 436.19384766 C175.89623497 444.09500259 168.15501606 451.64016955 159.375 458.3125 C158.83472168 458.72918945 158.29444336 459.14587891 157.73779297 459.57519531 C147.7427884 467.2584873 137.28290964 474.00092968 126.375 480.3125 C125.69775879 480.70679199 125.02051758 481.10108398 124.32275391 481.50732422 C98.40376191 496.41535371 68.91148362 505.97401819 39.375 510.3125 C38.17037109 510.48982666 36.96574219 510.66715332 35.72460938 510.84985352 C24.0673269 512.44882494 12.50313934 512.67090972 0.75 512.625 C-0.21955627 512.62317719 -1.18911255 512.62135437 -2.18804932 512.61947632 C-16.51979259 512.57412737 -30.53395512 512.15545422 -44.625 509.3125 C-45.52686035 509.13557617 -46.4287207 508.95865234 -47.35791016 508.77636719 C-53.83082573 507.47752189 -60.23520862 505.97073805 -66.625 504.3125 C-67.45563965 504.09754883 -68.2862793 503.88259766 -69.14208984 503.66113281 C-110.19536097 492.77326824 -147.18665796 470.71464317 -177.625 441.3125 C-178.55626709 440.414104 -178.55626709 440.414104 -179.50634766 439.49755859 C-187.40750259 431.83373497 -194.95266955 424.09251606 -201.625 415.3125 C-202.04168945 414.77222168 -202.45837891 414.23194336 -202.88769531 413.67529297 C-210.5709873 403.6802884 -217.31342968 393.22040964 -223.625 382.3125 C-224.01929199 381.63525879 -224.41358398 380.95801758 -224.81982422 380.26025391 C-239.72785371 354.34126191 -249.28651819 324.84898362 -253.625 295.3125 C-253.80232666 294.10787109 -253.97965332 292.90324219 -254.16235352 291.66210938 C-255.76132494 280.0048269 -255.98340972 268.44063934 -255.9375 256.6875 C-255.93476578 255.23316559 -255.93476578 255.23316559 -255.93197632 253.74945068 C-255.88662737 239.41770741 -255.46795422 225.40354488 -252.625 211.3125 C-252.44807617 210.41063965 -252.27115234 209.5087793 -252.08886719 208.57958984 C-250.79002189 202.10667427 -249.28323805 195.70229138 -247.625 189.3125 C-247.41004883 188.48186035 -247.19509766 187.6512207 -246.97363281 186.79541016 C-236.08576824 145.74213903 -214.02714317 108.75084204 -184.625 78.3125 C-184.02606934 77.69165527 -183.42713867 77.07081055 -182.81005859 76.43115234 C-175.14623497 68.52999741 -167.40501606 60.98483045 -158.625 54.3125 C-158.08472168 53.89581055 -157.54444336 53.47912109 -156.98779297 53.04980469 C-146.9927884 45.3665127 -136.53290964 38.62407032 -125.625 32.3125 C-124.94775879 31.91820801 -124.27051758 31.52391602 -123.57275391 31.11767578 C-97.65376191 16.20964629 -68.16148362 6.65098181 -38.625 2.3125 C-37.42037109 2.13517334 -36.21574219 1.95784668 -34.97460938 1.77514648 C-23.3173269 0.17617506 -11.75313934 -0.04590972 0 0 Z M-118.3125 145.5 C-131.21651276 161.71689215 -135.31793459 179.9034596 -133.625 200.3125 C-132.81234183 205.23444851 -131.40110496 209.65770808 -129.625 214.3125 C-129.34591797 215.06354004 -129.06683594 215.81458008 -128.77929688 216.58837891 C-115.94703584 250.93715406 -96.09718765 281.24009886 -70.96923828 307.86669922 C-69.05221229 309.92856408 -67.2162435 312.0579992 -65.375 314.1875 C-62.40535943 317.54660163 -59.28040499 320.50228418 -55.85546875 323.390625 C-53.22092096 325.66067319 -50.7162456 328.05019856 -48.1875 330.4375 C-16.93287606 359.42327723 31.7358623 391.27991702 75.97265625 389.62109375 C93.85127346 388.55331661 108.6986655 379.39425212 121.375 367.3125 C122.16342285 366.56154053 122.16342285 366.56154053 122.96777344 365.79541016 C130.81244204 358.88257192 130.81244204 358.88257192 135.0625 349.75 C134.95178073 345.55127175 133.29435317 343.69057121 130.47045898 340.68188477 C129.651008 339.8049295 128.83155701 338.92797424 127.98727417 338.02444458 C123.75293029 333.62854079 119.48098015 329.27581646 115.16015625 324.96484375 C114.21359473 324.01760632 113.26718149 323.07022068 112.32090759 322.12269592 C110.36032844 320.16065905 108.39799386 318.20040069 106.43432617 316.24145508 C103.91688794 313.72977664 101.40405222 311.21354835 98.89246464 308.69602108 C96.48411539 306.28320411 94.07198033 303.87418738 91.66015625 301.46484375 C90.30713158 300.10878273 90.30713158 300.10878273 88.92677307 298.72532654 C88.09508102 297.89678665 87.26338898 297.06824677 86.40649414 296.21459961 C85.67419083 295.48309189 84.94188751 294.75158417 84.18739319 293.99790955 C81.20955725 291.22871291 78.62948209 290.77174619 74.55444336 290.86010742 C65.77946567 292.68155176 56.40521148 306.33564278 50.2956543 312.71411133 C37.50212806 326.04301155 37.50212806 326.04301155 27.58984375 327.80859375 C26.83832031 327.78925781 26.08679688 327.76992188 25.3125 327.75 C24.55839844 327.74871094 23.80429687 327.74742187 23.02734375 327.74609375 C15.62645891 326.53622892 10.33912898 323.2181894 4.5625 318.6875 C3.86600342 318.15189453 3.16950684 317.61628906 2.4519043 317.06445312 C0.41679969 315.49216047 -1.60587584 313.90523813 -3.625 312.3125 C-4.62273437 311.53132812 -5.62046875 310.75015625 -6.6484375 309.9453125 C-23.74633543 296.25696606 -40.1751861 280.60890762 -53.625 263.3125 C-55.18491979 261.43535283 -56.747457 259.56037791 -58.3125 257.6875 C-69.69961978 243.76769333 -69.69961978 243.76769333 -70.0625 233.75 C-70.12308594 232.59371094 -70.18367188 231.43742187 -70.24609375 230.24609375 C-68.19010548 217.22483473 -55.88203853 208.30560284 -46.83642578 199.68139648 C-44.86474841 197.7943149 -42.90862586 195.89209909 -40.953125 193.98828125 C-40.3479303 193.42144119 -39.7427356 192.85460114 -39.11920166 192.27058411 C-35.37451756 188.61458707 -33.27490515 185.70161398 -32.625 180.3125 C-34.50248573 175.66984977 -36.99639219 172.56997552 -40.52368164 169.05737305 C-41.00858566 168.57042465 -41.49348969 168.08347626 -41.99308777 167.58177185 C-43.58329674 165.98857654 -45.18392718 164.4063316 -46.78515625 162.82421875 C-47.89767318 161.7147623 -49.0095978 160.6047116 -50.12095642 159.49409485 C-52.44402329 157.17561695 -54.77189655 154.8621203 -57.10375977 152.55249023 C-60.09562967 149.58900058 -63.07866243 146.61681065 -66.05860233 143.64132977 C-68.35115813 141.35292437 -70.64653122 139.067364 -72.94296074 136.78284645 C-74.04425924 135.68725034 -75.14508728 134.59118111 -76.24543953 133.49463463 C-77.77960022 131.96732938 -79.31709183 130.44346437 -80.85571289 128.9206543 C-81.73046768 128.05272751 -82.60522247 127.18480072 -83.50648499 126.29057312 C-86.13550472 123.83583797 -87.16097549 123.37746343 -90.75 122.875 C-101.83422632 124.12644491 -111.35320641 137.53280872 -118.3125 145.5 Z " fill="#000000" transform="translate(255.625,-0.3125)"/>
</svg>
