<?xml version="1.0" encoding="UTF-8"?>
<svg version="1.1" xmlns="http://www.w3.org/2000/svg" width="512" height="512">
<path d="M0 0 C2.22332371 2.1273529 4.47996259 4.12713174 6.83984375 6.09765625 C19.63739453 17.23179372 30.40402227 31.49966712 39.71484375 45.59765625 C40.30265625 46.48710938 40.89046875 47.3765625 41.49609375 48.29296875 C67.53161479 89.16020055 81.23197031 135.32651341 81.02734375 183.72265625 C81.02460953 185.07094513 81.02460953 185.07094513 81.02182007 186.44647217 C80.97440314 200.36604379 80.34857227 213.89760189 77.71484375 227.59765625 C77.54855469 228.51498535 77.38226563 229.43231445 77.2109375 230.37744141 C73.22960554 252.00565866 66.39046632 272.84884011 56.71484375 292.59765625 C56.30363281 293.43925293 55.89242188 294.28084961 55.46875 295.14794922 C49.45273315 307.32502784 42.7908368 318.67917502 34.71484375 329.59765625 C34.29348145 330.17451172 33.87211914 330.75136719 33.43798828 331.34570312 C28.11508384 338.60364233 22.3867345 345.33869231 16.23046875 351.89453125 C14.17442884 354.10381637 12.21384103 356.34764008 10.27734375 358.66015625 C-0.89531052 371.47429053 -15.15381887 382.26481038 -29.28515625 391.59765625 C-30.17460937 392.18546875 -31.0640625 392.77328125 -31.98046875 393.37890625 C-88.04867533 429.09859922 -155.33074397 441.17221057 -220.34765625 427.22265625 C-224.00503295 426.39144833 -227.64754232 425.5112441 -231.28515625 424.59765625 C-232.04054687 424.40977539 -232.7959375 424.22189453 -233.57421875 424.02832031 C-259.45337397 417.42913573 -285.75871978 405.39500963 -307.28515625 389.59765625 C-308.19652344 388.95570313 -309.10789062 388.31375 -310.046875 387.65234375 C-329.10648524 374.09529881 -346.84801513 358.02267901 -361.28515625 339.59765625 C-362.06375 338.63601563 -362.84234375 337.674375 -363.64453125 336.68359375 C-397.99797763 293.46827108 -415.8301317 239.44959602 -415.59765625 184.47265625 C-415.59583344 183.57412933 -415.59401062 182.67560242 -415.59213257 181.74984741 C-415.54474418 167.84467537 -414.98777076 154.27539485 -412.28515625 140.59765625 C-412.01977051 139.23036377 -412.01977051 139.23036377 -411.74902344 137.83544922 C-408.10042049 119.53887122 -402.77440688 101.69853212 -395.28515625 84.59765625 C-394.96708008 83.8711084 -394.64900391 83.14456055 -394.32128906 82.39599609 C-378.48923814 46.70998199 -353.2807683 13.50276881 -322.28515625 -10.40234375 C-321.73907715 -10.82483398 -321.19299805 -11.24732422 -320.63037109 -11.68261719 C-310.64127586 -19.35877289 -300.18512398 -26.0953688 -289.28515625 -32.40234375 C-288.60791504 -32.79663574 -287.93067383 -33.19092773 -287.23291016 -33.59716797 C-200.74788888 -83.34143456 -87.19923664 -71.29604868 0 0 Z M-277.875 24.1640625 C-283.43615585 30.24190276 -285.89089134 36.57077861 -286.53515625 44.78515625 C-285.9768448 53.29940586 -283.33132726 60.46959579 -277.28515625 66.59765625 C-270.808683 71.86733324 -264.19877245 73.91985996 -255.91015625 73.53515625 C-247.73538316 72.57007887 -240.51896055 69.02775868 -235.28515625 62.59765625 C-229.78790719 54.62586203 -228.29511845 48.37567003 -229.28515625 38.59765625 C-231.25426296 32.52692478 -234.3652802 27.69755296 -239.28515625 23.59765625 C-239.775 23.16839844 -240.26484375 22.73914063 -240.76953125 22.296875 C-252.07160197 13.17448935 -267.53705348 13.97851814 -277.875 24.1640625 Z M-291.28515625 87.59765625 C-291.28515625 159.20765625 -291.28515625 230.81765625 -291.28515625 304.59765625 C-270.82515625 304.59765625 -250.36515625 304.59765625 -229.28515625 304.59765625 C-229.28515625 232.98765625 -229.28515625 161.37765625 -229.28515625 87.59765625 C-249.74515625 87.59765625 -270.20515625 87.59765625 -291.28515625 87.59765625 Z M-197.28515625 87.59765625 C-197.28515625 159.20765625 -197.28515625 230.81765625 -197.28515625 304.59765625 C-177.15515625 304.59765625 -157.02515625 304.59765625 -136.28515625 304.59765625 C-136.27097656 294.82398438 -136.25679688 285.0503125 -136.2421875 274.98046875 C-136.22212672 268.78252575 -136.20080952 262.58462909 -136.17382812 256.38671875 C-136.13125081 246.55271104 -136.09375092 236.71887468 -136.08959961 226.88476562 C-136.0865522 219.72172494 -136.06595786 212.55898187 -136.02463168 205.39605606 C-136.00336996 201.60618269 -135.99066554 197.81673168 -135.99900246 194.02679825 C-136.00658644 190.45277289 -135.99054646 186.87960022 -135.9570961 183.30573082 C-135.94504054 181.38253848 -135.95739518 179.4592405 -135.97071838 177.53605652 C-135.84504993 167.94713101 -133.49379912 160.99540725 -127.09765625 153.78515625 C-117.64928503 145.07622278 -106.25952254 143.14195125 -93.85546875 143.3515625 C-87.93167351 143.75987661 -83.49773492 144.91524095 -79.41015625 149.47265625 C-75.06556215 155.86176522 -74.17460428 162.03184344 -74.12693787 169.67208862 C-74.11714905 170.86673233 -74.10736023 172.06137604 -74.09727478 173.29222107 C-74.09151932 174.58910355 -74.08576385 175.88598602 -74.07983398 177.22216797 C-74.07024589 178.61220078 -74.06023527 180.00223072 -74.04983521 181.39225769 C-74.02288095 185.15416075 -74.00182029 188.91607624 -73.98183322 192.67802191 C-73.95991495 196.61383146 -73.93255492 200.54960313 -73.90577698 204.48538208 C-73.85592888 211.93313942 -73.81096091 219.38091788 -73.76775461 226.8287164 C-73.71831473 235.30997673 -73.6634217 243.79119903 -73.60807502 252.27242255 C-73.49437603 269.71413334 -73.38823064 287.15587921 -73.28515625 304.59765625 C-53.15515625 304.59765625 -33.02515625 304.59765625 -12.28515625 304.59765625 C-12.22678843 280.55860027 -12.22678843 280.55860027 -12.1875 256.51953125 C-12.17568061 246.70180141 -12.1618654 236.88410615 -12.13427734 227.06640625 C-12.11418562 219.91292852 -12.10140287 212.75947913 -12.09697926 205.60597396 C-12.09439825 201.82704513 -12.08844178 198.0481973 -12.07369614 194.26929474 C-11.59261018 165.22355442 -11.59261018 165.22355442 -16.47265625 136.72265625 C-16.7962915 135.56044556 -16.7962915 135.56044556 -17.12646484 134.37475586 C-21.93272717 117.97900875 -31.50373468 103.67524519 -46.28515625 94.59765625 C-64.76500199 85.32052564 -83.75304664 85.95288406 -103.28515625 91.59765625 C-114.82851787 95.45286302 -125.15278215 100.92220979 -135.28515625 107.59765625 C-135.61515625 100.99765625 -135.94515625 94.39765625 -136.28515625 87.59765625 C-156.41515625 87.59765625 -176.54515625 87.59765625 -197.28515625 87.59765625 Z " fill="#000000" transform="translate(423.28515625,77.40234375)"/>
</svg>
